<mxfile host="Electron" modified="2024-11-05T18:23:01.378Z" agent="Mozilla/5.0 (Windows NT 10.0; Win64; x64) AppleWebKit/537.36 (KHTML, like Gecko) draw.io/21.5.0 Chrome/112.0.5615.204 Electron/24.5.1 Safari/537.36" etag="MKvukN_HNMIgzRFdV1hF" version="21.5.0" type="device" pages="2">
  <diagram name="Page-1" id="tv-AhiaSVwLx9br4D9yf">
    <mxGraphModel dx="2518" dy="974" grid="1" gridSize="10" guides="1" tooltips="1" connect="1" arrows="1" fold="1" page="1" pageScale="1" pageWidth="850" pageHeight="1100" math="0" shadow="0">
      <root>
        <mxCell id="0" />
        <mxCell id="1" parent="0" />
        <mxCell id="O8kWR0iNUAdugBbJLwA--17" value="" style="rounded=0;whiteSpace=wrap;html=1;fillColor=none;" vertex="1" parent="1">
          <mxGeometry x="-790" y="140" width="100" height="90" as="geometry" />
        </mxCell>
        <mxCell id="mGVc_dKUWnSlSUrjzq1a-13" value="CENTRAL" style="rounded=0;whiteSpace=wrap;html=1;" parent="1" vertex="1">
          <mxGeometry x="-781.07" y="320" width="110" height="100" as="geometry" />
        </mxCell>
        <mxCell id="O8kWR0iNUAdugBbJLwA--2" value="BRIDGE" style="rounded=0;whiteSpace=wrap;html=1;" vertex="1" parent="1">
          <mxGeometry x="-561.0699999999999" y="165" width="100" height="90" as="geometry" />
        </mxCell>
        <mxCell id="O8kWR0iNUAdugBbJLwA--4" value="THINGSBOARD" style="rounded=0;whiteSpace=wrap;html=1;" vertex="1" parent="1">
          <mxGeometry x="-167.2" y="60" width="100" height="90" as="geometry" />
        </mxCell>
        <mxCell id="O8kWR0iNUAdugBbJLwA--5" value="SERVER CUST" style="rounded=0;whiteSpace=wrap;html=1;" vertex="1" parent="1">
          <mxGeometry x="-170" y="165" width="100" height="90" as="geometry" />
        </mxCell>
        <mxCell id="O8kWR0iNUAdugBbJLwA--6" value="CLIENT" style="rounded=0;whiteSpace=wrap;html=1;" vertex="1" parent="1">
          <mxGeometry x="-170.00000000000014" y="280" width="100" height="90" as="geometry" />
        </mxCell>
        <mxCell id="O8kWR0iNUAdugBbJLwA--8" value="" style="endArrow=classic;startArrow=classic;html=1;rounded=0;entryX=0;entryY=0.5;entryDx=0;entryDy=0;exitX=1;exitY=0.5;exitDx=0;exitDy=0;" edge="1" parent="1" source="O8kWR0iNUAdugBbJLwA--1" target="O8kWR0iNUAdugBbJLwA--2">
          <mxGeometry width="50" height="50" relative="1" as="geometry">
            <mxPoint x="-600.0699999999999" y="260" as="sourcePoint" />
            <mxPoint x="-550.0699999999999" y="210" as="targetPoint" />
          </mxGeometry>
        </mxCell>
        <mxCell id="O8kWR0iNUAdugBbJLwA--9" value="INTERNET" style="ellipse;whiteSpace=wrap;html=1;" vertex="1" parent="1">
          <mxGeometry x="-350" y="180" width="96.2" height="60" as="geometry" />
        </mxCell>
        <mxCell id="O8kWR0iNUAdugBbJLwA--10" value="" style="endArrow=classic;startArrow=classic;html=1;rounded=0;entryX=0;entryY=0.5;entryDx=0;entryDy=0;exitX=1;exitY=0.5;exitDx=0;exitDy=0;" edge="1" parent="1" target="O8kWR0iNUAdugBbJLwA--9">
          <mxGeometry width="50" height="50" relative="1" as="geometry">
            <mxPoint x="-456.2" y="209.40999999999997" as="sourcePoint" />
            <mxPoint x="-356.2" y="209.40999999999997" as="targetPoint" />
          </mxGeometry>
        </mxCell>
        <mxCell id="O8kWR0iNUAdugBbJLwA--16" value="" style="rounded=0;whiteSpace=wrap;html=1;" vertex="1" parent="1">
          <mxGeometry x="-781.07" y="150" width="100" height="90" as="geometry" />
        </mxCell>
        <mxCell id="O8kWR0iNUAdugBbJLwA--13" value="" style="endArrow=classic;startArrow=classic;html=1;rounded=0;entryX=0;entryY=0.5;entryDx=0;entryDy=0;" edge="1" parent="1" source="O8kWR0iNUAdugBbJLwA--9" target="O8kWR0iNUAdugBbJLwA--4">
          <mxGeometry width="50" height="50" relative="1" as="geometry">
            <mxPoint x="-306.2" y="148.52999999999997" as="sourcePoint" />
            <mxPoint x="-200" y="149.12" as="targetPoint" />
          </mxGeometry>
        </mxCell>
        <mxCell id="O8kWR0iNUAdugBbJLwA--1" value="ACQUISITION" style="rounded=0;whiteSpace=wrap;html=1;" vertex="1" parent="1">
          <mxGeometry x="-770" y="165" width="100" height="90" as="geometry" />
        </mxCell>
        <mxCell id="O8kWR0iNUAdugBbJLwA--20" value="" style="endArrow=classic;startArrow=classic;html=1;rounded=0;exitX=1;exitY=0.5;exitDx=0;exitDy=0;entryX=0.5;entryY=1;entryDx=0;entryDy=0;" edge="1" parent="1" source="mGVc_dKUWnSlSUrjzq1a-13" target="O8kWR0iNUAdugBbJLwA--2">
          <mxGeometry width="50" height="50" relative="1" as="geometry">
            <mxPoint x="-611.27" y="360" as="sourcePoint" />
            <mxPoint x="-450" y="300" as="targetPoint" />
            <Array as="points">
              <mxPoint x="-511" y="370" />
            </Array>
          </mxGeometry>
        </mxCell>
        <mxCell id="O8kWR0iNUAdugBbJLwA--21" value="&lt;font style=&quot;font-size: 19px;&quot;&gt;COMPLETE BLOCKS DIAGRAM&lt;/font&gt;" style="text;html=1;align=center;verticalAlign=middle;resizable=0;points=[];autosize=1;strokeColor=none;fillColor=none;" vertex="1" parent="1">
          <mxGeometry x="-570" y="50" width="300" height="40" as="geometry" />
        </mxCell>
        <mxCell id="O8kWR0iNUAdugBbJLwA--23" value="" style="endArrow=classic;startArrow=classic;html=1;rounded=0;entryX=0;entryY=0.5;entryDx=0;entryDy=0;exitX=1;exitY=0.5;exitDx=0;exitDy=0;" edge="1" parent="1" source="O8kWR0iNUAdugBbJLwA--9" target="O8kWR0iNUAdugBbJLwA--5">
          <mxGeometry width="50" height="50" relative="1" as="geometry">
            <mxPoint x="-262" y="197" as="sourcePoint" />
            <mxPoint x="-157" y="115" as="targetPoint" />
          </mxGeometry>
        </mxCell>
        <mxCell id="O8kWR0iNUAdugBbJLwA--24" value="" style="endArrow=classic;startArrow=classic;html=1;rounded=0;entryX=0;entryY=0.5;entryDx=0;entryDy=0;exitX=1;exitY=1;exitDx=0;exitDy=0;" edge="1" parent="1" source="O8kWR0iNUAdugBbJLwA--9" target="O8kWR0iNUAdugBbJLwA--6">
          <mxGeometry width="50" height="50" relative="1" as="geometry">
            <mxPoint x="-254" y="280" as="sourcePoint" />
            <mxPoint x="-160" y="280" as="targetPoint" />
          </mxGeometry>
        </mxCell>
      </root>
    </mxGraphModel>
  </diagram>
  <diagram id="jSqU_xi2mp0vP-bBiXjE" name="Page-2">
    <mxGraphModel dx="1036" dy="614" grid="1" gridSize="10" guides="1" tooltips="1" connect="1" arrows="1" fold="1" page="1" pageScale="1" pageWidth="1200" pageHeight="1600" math="0" shadow="0">
      <root>
        <mxCell id="0" />
        <mxCell id="1" parent="0" />
        <mxCell id="_zMGYrvJDNiBgWiTeC4j-1" value="ACQUISITION" style="rounded=0;whiteSpace=wrap;html=1;fillColor=#f8cecc;strokeColor=#b85450;" vertex="1" parent="1">
          <mxGeometry x="150" y="150" width="120" height="100" as="geometry" />
        </mxCell>
        <mxCell id="_zMGYrvJDNiBgWiTeC4j-2" value="CENTRAL" style="rounded=0;whiteSpace=wrap;html=1;fillColor=#f8cecc;strokeColor=#b85450;" vertex="1" parent="1">
          <mxGeometry x="180" y="400" width="120" height="100" as="geometry" />
        </mxCell>
        <mxCell id="_zMGYrvJDNiBgWiTeC4j-3" value="BRIDGE" style="rounded=0;whiteSpace=wrap;html=1;fillColor=#e1d5e7;strokeColor=#9673a6;" vertex="1" parent="1">
          <mxGeometry x="400" y="150" width="120" height="100" as="geometry" />
        </mxCell>
        <mxCell id="_zMGYrvJDNiBgWiTeC4j-4" value="THINGSBOARD" style="rounded=0;whiteSpace=wrap;html=1;fillColor=#dae8fc;strokeColor=#6c8ebf;" vertex="1" parent="1">
          <mxGeometry x="710" y="60" width="140" height="115" as="geometry" />
        </mxCell>
        <mxCell id="_zMGYrvJDNiBgWiTeC4j-5" value="SERVER CUSTOMER" style="rounded=0;whiteSpace=wrap;html=1;fillColor=#dae8fc;strokeColor=#6c8ebf;" vertex="1" parent="1">
          <mxGeometry x="720" y="240" width="120" height="100" as="geometry" />
        </mxCell>
        <mxCell id="_zMGYrvJDNiBgWiTeC4j-9" value="" style="endArrow=classic;startArrow=classic;html=1;rounded=0;exitX=1;exitY=0.5;exitDx=0;exitDy=0;entryX=0;entryY=0.5;entryDx=0;entryDy=0;" edge="1" parent="1" source="_zMGYrvJDNiBgWiTeC4j-1" target="_zMGYrvJDNiBgWiTeC4j-3">
          <mxGeometry width="50" height="50" relative="1" as="geometry">
            <mxPoint x="410" y="250" as="sourcePoint" />
            <mxPoint x="460" y="200" as="targetPoint" />
          </mxGeometry>
        </mxCell>
        <mxCell id="_zMGYrvJDNiBgWiTeC4j-10" value="" style="endArrow=classic;html=1;rounded=0;exitX=0.5;exitY=0;exitDx=0;exitDy=0;entryX=0.5;entryY=1;entryDx=0;entryDy=0;" edge="1" parent="1" source="_zMGYrvJDNiBgWiTeC4j-2" target="_zMGYrvJDNiBgWiTeC4j-27">
          <mxGeometry width="50" height="50" relative="1" as="geometry">
            <mxPoint x="260" y="300" as="sourcePoint" />
            <mxPoint x="310" y="250" as="targetPoint" />
          </mxGeometry>
        </mxCell>
        <mxCell id="_zMGYrvJDNiBgWiTeC4j-12" value="Identification" style="text;html=1;align=center;verticalAlign=middle;resizable=0;points=[];autosize=1;strokeColor=none;fillColor=none;" vertex="1" parent="1">
          <mxGeometry x="330" y="420" width="90" height="30" as="geometry" />
        </mxCell>
        <mxCell id="_zMGYrvJDNiBgWiTeC4j-13" value="Data" style="text;html=1;align=center;verticalAlign=middle;resizable=0;points=[];autosize=1;strokeColor=none;fillColor=none;" vertex="1" parent="1">
          <mxGeometry x="320" y="175" width="50" height="30" as="geometry" />
        </mxCell>
        <mxCell id="_zMGYrvJDNiBgWiTeC4j-16" value="Internet" style="ellipse;whiteSpace=wrap;html=1;" vertex="1" parent="1">
          <mxGeometry x="580" y="160" width="80" height="80" as="geometry" />
        </mxCell>
        <mxCell id="_zMGYrvJDNiBgWiTeC4j-21" value="" style="endArrow=classic;startArrow=classic;html=1;rounded=0;entryX=0;entryY=0.5;entryDx=0;entryDy=0;exitX=1;exitY=0.5;exitDx=0;exitDy=0;fillColor=#f8cecc;strokeColor=#b85450;" edge="1" parent="1" source="_zMGYrvJDNiBgWiTeC4j-16" target="_zMGYrvJDNiBgWiTeC4j-5">
          <mxGeometry width="50" height="50" relative="1" as="geometry">
            <mxPoint x="480" y="290" as="sourcePoint" />
            <mxPoint x="530" y="240" as="targetPoint" />
          </mxGeometry>
        </mxCell>
        <mxCell id="_zMGYrvJDNiBgWiTeC4j-23" value="" style="endArrow=classic;startArrow=classic;html=1;rounded=0;entryX=0.5;entryY=1;entryDx=0;entryDy=0;exitX=1;exitY=0.5;exitDx=0;exitDy=0;fillColor=#f8cecc;strokeColor=#b85450;" edge="1" parent="1" source="_zMGYrvJDNiBgWiTeC4j-2" target="_zMGYrvJDNiBgWiTeC4j-3">
          <mxGeometry width="50" height="50" relative="1" as="geometry">
            <mxPoint x="560" y="300" as="sourcePoint" />
            <mxPoint x="640" y="380" as="targetPoint" />
            <Array as="points">
              <mxPoint x="460" y="450" />
            </Array>
          </mxGeometry>
        </mxCell>
        <mxCell id="_zMGYrvJDNiBgWiTeC4j-24" value="" style="endArrow=classic;startArrow=classic;html=1;rounded=0;entryX=0;entryY=0.5;entryDx=0;entryDy=0;exitX=1;exitY=0.5;exitDx=0;exitDy=0;fillColor=#d5e8d4;strokeColor=#82b366;" edge="1" parent="1" source="_zMGYrvJDNiBgWiTeC4j-16" target="_zMGYrvJDNiBgWiTeC4j-4">
          <mxGeometry width="50" height="50" relative="1" as="geometry">
            <mxPoint x="600" y="40" as="sourcePoint" />
            <mxPoint x="670" y="120" as="targetPoint" />
          </mxGeometry>
        </mxCell>
        <mxCell id="_zMGYrvJDNiBgWiTeC4j-25" value="" style="endArrow=classic;startArrow=classic;html=1;rounded=0;exitX=1;exitY=0.5;exitDx=0;exitDy=0;fillColor=#d5e8d4;strokeColor=#82b366;" edge="1" parent="1" source="_zMGYrvJDNiBgWiTeC4j-3" target="_zMGYrvJDNiBgWiTeC4j-16">
          <mxGeometry width="50" height="50" relative="1" as="geometry">
            <mxPoint x="670" y="210" as="sourcePoint" />
            <mxPoint x="720" y="128" as="targetPoint" />
          </mxGeometry>
        </mxCell>
        <mxCell id="_zMGYrvJDNiBgWiTeC4j-26" value="ACQUISITION" style="rounded=0;whiteSpace=wrap;html=1;fillColor=#f8cecc;strokeColor=#b85450;" vertex="1" parent="1">
          <mxGeometry x="160" y="170" width="120" height="100" as="geometry" />
        </mxCell>
        <mxCell id="_zMGYrvJDNiBgWiTeC4j-27" value="ACQUISITION" style="rounded=0;whiteSpace=wrap;html=1;fillColor=#f8cecc;strokeColor=#b85450;" vertex="1" parent="1">
          <mxGeometry x="180" y="190" width="120" height="100" as="geometry" />
        </mxCell>
        <mxCell id="_zMGYrvJDNiBgWiTeC4j-28" value="CLIENT" style="rounded=0;whiteSpace=wrap;html=1;fillColor=#d5e8d4;strokeColor=#82b366;" vertex="1" parent="1">
          <mxGeometry x="740" y="410" width="90" height="100" as="geometry" />
        </mxCell>
      </root>
    </mxGraphModel>
  </diagram>
</mxfile>
